# xmcd
#
# Track frame offsets:
#	150
#	15015
#	30562
#	46188
#	60315
#	74555
#	88433
#	101079
#	114892
#	129715
#	148960
#	171158
#
# Disc length: 2528 seconds
#
# Revision: 0
# Processed by: cddbd v1.5.2PL0 Copyright (c) Steve Scherf et al.
# Submitted via: EZCDDA 4.3.3.2
#
DISCID=a109de0c
DTITLE=Ricke Tippe - Get Hot or go home
DYEAR=1996
DGENRE=Country
TTITLE0=Get hot or go home
TTITLE1=She made me an offer
TTITLE2=The Real Thing
TTITLE3=She's the only one
TTITLE4=Where he left off
TTITLE5=The craziest thing
TTITLE6=Never givin' in
TTITLE7=You're all I need
TTITLE8=It's just Love
TTITLE9=Honey you drive me crazy
TTITLE10=Bad heart day (Club Mix)
TTITLE11=Rattlesnake shake
EXTD=
EXTT0=
EXTT1=
EXTT2=
EXTT3=
EXTT4=
EXTT5=
EXTT6=
EXTT7=
EXTT8=
EXTT9=
EXTT10=
EXTT11=
PLAYORDER=
